<svg xmlns="http://www.w3.org/2000/svg" height="18" width="18" viewBox="0 0 18 18"><g fill="currentColor" class="nc-icon-wrapper"><path d="m16.2803,5.7197l-3-3c-.293-.293-.7676-.293-1.0605,0l-3,3c-.293.293-.293.7676,0,1.0605s.7676.293,1.0605,0l1.7197-1.7197v9.6895c0,.4141.3359.75.75.75s.75-.3359.75-.75V5.0605l1.7197,1.7197c.1465.1465.3379.2197.5303.2197s.3838-.0732.5303-.2197c.293-.293.293-.7676,0-1.0605Z" opacity=".4" stroke-width="0" data-color="color-2"></path><path d="m7.7197,11.2197l-1.7197,1.7197V3.25c0-.4141-.3359-.75-.75-.75s-.75.3359-.75.75v9.6895l-1.7197-1.7197c-.293-.293-.7676-.293-1.0605,0s-.293.7676,0,1.0605l3,3c.1465.1465.3379.2197.5303.2197s.3838-.0732.5303-.2197l3-3c.293-.293.293-.7676,0-1.0605s-.7676-.293-1.0605,0Z" stroke-width="0"></path></g></svg>