<svg xmlns="http://www.w3.org/2000/svg" height="18" width="18" viewBox="0 0 18 18"><g fill="currentColor" class="nc-icon-wrapper"><path fill-rule="evenodd" clip-rule="evenodd" d="M3.5 6.50861C3.5 3.46913 5.96096 1 9 1C12.039 1 14.5 3.46902 14.5 6.50861C14.5 8.53911 13.5093 10.2935 12.4119 11.5601C11.8586 12.1986 11.2628 12.7317 10.7162 13.1348C10.1822 13.5286 9.65215 13.8303 9.22624 13.9651C9.07901 14.0116 8.92099 14.0116 8.77376 13.9651C8.34785 13.8303 7.81778 13.5286 7.28382 13.1348C6.73721 12.7317 6.14142 12.1986 5.58812 11.5601C4.49068 10.2935 3.5 8.53911 3.5 6.50861Z" fill-opacity="0.4" data-color="color-2"></path> <path d="M5.71626 11.7053C4.99934 11.8021 4.34096 11.9301 3.76309 12.0845C3.6911 12.1037 3.62043 12.1233 3.55047 12.1435C2.90945 12.3284 2.34109 12.558 1.91002 12.8391C1.48303 13.1177 1 13.5807 1 14.25C1 14.9193 1.48302 15.3784 1.91001 15.6569C2.3686 15.956 2.98255 16.1966 3.67408 16.3874C5.06776 16.7718 6.9505 17 9 17C11.0495 17 12.9322 16.7718 14.3259 16.3874C15.0174 16.1966 15.6314 15.956 16.09 15.6569C16.517 15.3784 17 14.9189 17 14.2496C17 13.5804 16.517 13.1177 16.09 12.8391C15.6314 12.54 15.0175 12.2994 14.3259 12.1086C13.727 11.9434 13.0377 11.8071 12.2837 11.7053C11.7674 12.2797 11.2208 12.7626 10.7162 13.1348C10.1822 13.5286 9.65215 13.8303 9.22624 13.9651C9.07901 14.0116 8.92099 14.0116 8.77376 13.9651C8.34784 13.8303 7.81778 13.5286 7.28382 13.1348C6.77917 12.7626 6.2326 12.2797 5.71626 11.7053Z"></path> <path fill-rule="evenodd" clip-rule="evenodd" d="M6.5 6.5C6.5 5.11979 7.61979 4 9 4C10.3802 4 11.5 5.11979 11.5 6.5C11.5 7.88021 10.3802 9 9 9C7.61979 9 6.5 7.88021 6.5 6.5Z"></path></g></svg>