<svg xmlns="http://www.w3.org/2000/svg" height="18" width="18" viewBox="0 0 18 18"><g fill="currentColor" class="nc-icon-wrapper"><path d="M14.5 10C12.5703 10 11 11.5703 11 13.5C11 16.1543 14.0107 17.8369 14.1396 17.9072C14.2519 17.9687 14.3759 18 14.5 18C14.6241 18 14.748 17.9688 14.8604 17.9072C14.9893 17.8369 18 16.1543 18 13.5C18 11.5703 16.4297 10 14.5 10ZM14.5 14.5C13.9478 14.5 13.5 14.0522 13.5 13.5C13.5 12.9478 13.9478 12.5 14.5 12.5C15.0522 12.5 15.5 12.9477 15.5 13.5C15.5 14.0523 15.0522 14.5 14.5 14.5Z"></path> <path d="M11.818 3.9602V9.28116C10.4252 10.1694 9.5 11.7282 9.5 13.5C9.5 14.1796 9.63622 14.8006 9.85179 15.3584L6.268 14.055C6.24185 14.0455 6.21494 14.0406 6.18848 14.0399V2.03922C6.38856 2.03983 6.58873 2.07459 6.77998 2.14404L11.732 3.94503C11.7603 3.95529 11.7895 3.96025 11.818 3.9602Z" fill-opacity="0.2" data-color="color-2"></path> <path d="M6.18848 14.0399V2.03922C6.05932 2.03883 5.93021 2.05266 5.80355 2.08058L2.37062 2.84379C1.56982 3.02102 1 3.73186 1 4.552V13.004C1 14.1237 2.03642 14.9552 3.12983 14.7121L6.1302 14.0456C6.14903 14.0413 6.16863 14.0394 6.18848 14.0399Z" fill-opacity="0.4" data-color="color-2"></path> <path d="M11.818 3.9602V9.28116C12.5934 8.78669 13.5137 8.5 14.5 8.5C15.4102 8.5 16.2642 8.74417 17 9.17048V4.996C17 3.87625 15.9636 3.04484 14.8702 3.2879L11.8698 3.95443C11.853 3.95822 11.8356 3.96017 11.818 3.9602Z" fill-opacity="0.4" data-color="color-2"></path></g></svg>