<svg xmlns="http://www.w3.org/2000/svg" height="18" width="18" viewBox="0 0 18 18"><g fill="currentColor" class="nc-icon-wrapper"><path fill-rule="evenodd" clip-rule="evenodd" d="M8.16963 1.22703C8.33372 1.16922 8.67031 1.05063 9.00028 1.05075C9.1795 1.05082 9.36084 1.079 9.53357 1.13368L14.7836 2.81368C15.5071 3.04612 16 3.71943 16 4.48V11C16 12.8725 14.6025 14.2314 13.2749 15.1143C12.1533 15.8602 10.9062 16.4082 9.63302 16.8379C9.57968 16.8559 9.49355 16.8849 9.40738 16.9058C9.09216 16.9819 8.76807 16.9684 8.46011 16.8683C7.80803 16.6572 6.25089 16.1022 4.84192 15.1909C3.47441 14.3064 2 12.9239 2 11V4.48C2 3.71932 2.49139 3.04506 3.21675 2.81358C4.86562 2.28594 6.53686 1.80232 8.16963 1.22703Z" fill-opacity="0.4" data-color="color-2"></path></g></svg>